<?xml version="1.0" standalone="no"?>
<!DOCTYPE svg PUBLIC "-//W3C//DTD SVG 20010904//EN"
 "http://www.w3.org/TR/2001/REC-SVG-20010904/DTD/svg10.dtd">
<svg version="1.0" xmlns="http://www.w3.org/2000/svg"
 width="640.000000pt" height="640.000000pt" viewBox="0 0 640.000000 640.000000"
 preserveAspectRatio="xMidYMid meet">
<metadata>
Created by potrace 1.11, written by Peter Selinger 2001-2013
</metadata>
<g transform="translate(0.000000,640.000000) scale(0.100000,-0.100000)"
fill="#000000" stroke="none">
<path d="M3566 5424 c-332 -60 -643 -269 -834 -559 l-46 -70 -132 3 c-150 5
-226 -6 -349 -48 -237 -80 -429 -252 -546 -486 l-50 -101 -117 -6 c-75 -3
-144 -13 -191 -27 -328 -94 -577 -344 -673 -676 -20 -69 -23 -101 -23 -254 0
-153 3 -185 23 -254 96 -332 338 -576 673 -678 72 -22 88 -22 580 -26 l506 -3
54 -50 c108 -98 290 -206 415 -244 233 -72 498 -76 689 -9 23 8 46 14 54 14
23 0 201 91 269 138 37 25 91 68 120 96 l54 51 451 6 c432 5 455 6 526 28 334
101 577 345 673 677 20 69 23 101 23 254 0 153 -3 185 -23 255 -79 275 -267
494 -528 616 l-84 40 0 93 c0 238 -88 501 -236 707 -67 92 -213 237 -305 302
-144 102 -336 181 -515 212 -109 19 -351 18 -458 -1z"/>
<path d="M2025 2041 c-62 -15 -110 -63 -133 -130 -28 -80 -8 -132 85 -222 66
-64 224 -189 239 -189 4 0 15 -6 23 -14 9 -7 48 -31 86 -51 39 -21 75 -41 80
-45 27 -18 218 -91 295 -113 327 -93 597 -101 920 -30 71 15 232 64 275 83 37
16 250 121 270 133 109 65 281 201 352 278 35 39 49 107 33 165 -19 67 -83
129 -143 138 -82 12 -120 -1 -194 -68 -79 -70 -197 -160 -257 -193 -60 -34
-205 -103 -216 -103 -5 0 -24 -6 -42 -14 -133 -56 -266 -78 -473 -78 -195 -1
-297 14 -459 67 -67 22 -239 101 -301 138 -65 39 -114 74 -146 101 -20 17 -62
54 -94 81 -32 28 -63 53 -69 57 -20 11 -100 17 -131 9z"/>
<path d="M1549 1536 c-44 -14 -64 -29 -101 -80 -24 -33 -28 -49 -28 -102 0
-80 12 -100 118 -194 207 -185 448 -339 687 -439 126 -52 144 -59 245 -90 266
-81 485 -115 740 -116 310 0 585 50 919 170 108 39 332 152 429 216 24 16 45
29 48 29 17 0 263 198 332 266 l82 83 0 69 c0 60 -4 74 -29 108 -41 56 -61 71
-112 85 -78 21 -124 3 -221 -86 -82 -77 -255 -204 -353 -262 -51 -30 -265
-133 -305 -148 -99 -35 -256 -85 -269 -85 -8 0 -37 -6 -65 -14 -291 -82 -847
-52 -1114 60 -18 8 -39 14 -46 14 -20 0 -205 83 -304 136 -135 72 -266 163
-392 271 -142 122 -176 137 -261 109z"/>
</g>
</svg>
